<svg width="144" height="126" viewBox="0 0 144 126" fill="none" xmlns="http://www.w3.org/2000/svg">
<path d="M131.12 101.335V110.451C131.12 111.371 130.933 112.07 130.558 112.547C130.183 113.024 129.581 113.263 128.752 113.263H127.065L123.555 105.135V113.263H121.306V101.335H124.015L128.343 111.218H128.377C128.57 111.218 128.701 111.138 128.769 110.979C128.837 110.809 128.871 110.508 128.871 110.076V101.335H131.12Z" fill="#DEFFEF"/>
<path d="M114.735 113.467C113.156 113.467 111.947 113.104 111.106 112.377C110.277 111.638 109.862 110.554 109.862 109.122V105.476C109.862 104.045 110.277 102.966 111.106 102.239C111.947 101.5 113.156 101.131 114.735 101.131C116.314 101.131 117.518 101.5 118.348 102.239C119.188 102.966 119.609 104.045 119.609 105.476V109.122C119.609 110.554 119.188 111.638 118.348 112.377C117.518 113.104 116.314 113.467 114.735 113.467ZM114.735 111.593C115.531 111.593 116.138 111.383 116.559 110.963C116.99 110.531 117.206 109.917 117.206 109.122V105.476C117.206 104.681 116.99 104.073 116.559 103.653C116.138 103.221 115.531 103.005 114.735 103.005C113.94 103.005 113.327 103.221 112.895 103.653C112.475 104.073 112.265 104.681 112.265 105.476V109.122C112.265 109.917 112.475 110.531 112.895 110.963C113.327 111.383 113.94 111.593 114.735 111.593Z" fill="#DEFFEF"/>
<path d="M105.763 101.335H108.165V113.263H105.763V101.335Z" fill="#DEFFEF"/>
<path d="M99.3935 113.467C98.5756 113.467 97.8884 113.376 97.3318 113.195C96.7865 113.013 96.3265 112.763 95.9516 112.445C95.5768 112.127 95.1905 111.701 94.793 111.167L96.4117 109.821C96.8774 110.468 97.3261 110.928 97.7577 111.201C98.2007 111.462 98.746 111.593 99.3935 111.593C100.291 111.593 100.944 111.462 101.353 111.201C101.762 110.94 101.966 110.52 101.966 109.94C101.966 109.645 101.87 109.406 101.677 109.225C101.484 109.031 101.148 108.855 100.671 108.696C100.206 108.537 99.5071 108.361 98.5756 108.168C97.4851 107.941 96.6729 107.538 96.139 106.958C95.6165 106.368 95.3553 105.584 95.3553 104.607C95.3553 103.903 95.5313 103.289 95.8835 102.767C96.247 102.244 96.7581 101.841 97.417 101.557C98.0758 101.273 98.8425 101.131 99.7172 101.131C100.853 101.131 101.756 101.301 102.426 101.642C103.097 101.972 103.642 102.46 104.062 103.108L102.477 104.403C102.125 104.05 101.83 103.783 101.591 103.602C101.364 103.409 101.103 103.261 100.808 103.159C100.512 103.056 100.149 103.005 99.7172 103.005C99.0697 103.005 98.5813 103.147 98.2519 103.431C97.9224 103.715 97.7577 104.124 97.7577 104.658C97.7577 105.158 97.9679 105.527 98.3882 105.766C98.8085 105.993 99.348 106.18 100.007 106.328C100.984 106.532 101.762 106.743 102.341 106.958C102.921 107.174 103.403 107.521 103.789 107.998C104.176 108.475 104.369 109.128 104.369 109.957C104.369 111.139 103.954 112.019 103.125 112.598C102.307 113.178 101.063 113.467 99.3935 113.467Z" fill="#DEFFEF"/>
<path d="M91.0361 101.335H93.4386V113.263H91.0361V101.335Z" fill="#DEFFEF"/>
<path d="M85.2816 113.467C83.68 113.467 82.4589 113.104 81.6183 112.377C80.7777 111.638 80.3574 110.554 80.3574 109.122V105.476C80.3574 104.045 80.7777 102.966 81.6183 102.239C82.4589 101.5 83.68 101.131 85.2816 101.131C86.3949 101.131 87.3036 101.319 88.0079 101.693C88.7235 102.057 89.2915 102.608 89.7117 103.346L87.9908 104.539C87.6387 103.994 87.2695 103.602 86.8833 103.363C86.5084 103.125 85.9746 103.005 85.2816 103.005C84.407 103.005 83.7652 103.216 83.3563 103.636C82.9587 104.045 82.7599 104.658 82.7599 105.476V109.122C82.7599 109.94 82.9587 110.559 83.3563 110.98C83.7652 111.388 84.407 111.593 85.2816 111.593C86.0314 111.593 86.6107 111.468 87.0196 111.218C87.4399 110.957 87.8148 110.542 88.1442 109.974L89.8481 111.235C89.4846 111.758 89.1097 112.178 88.7235 112.496C88.3373 112.814 87.8659 113.058 87.3093 113.229C86.764 113.388 86.0882 113.467 85.2816 113.467Z" fill="#DEFFEF"/>
<path d="M75.479 113.263C73.9682 113.263 72.8834 112.945 72.2246 112.308C71.5657 111.672 71.2363 110.752 71.2363 109.548V105.05C71.2363 103.846 71.5657 102.926 72.2246 102.29C72.8834 101.654 73.9682 101.335 75.479 101.335H79.4661V103.21H75.479C74.8542 103.21 74.3885 103.357 74.0818 103.653C73.7865 103.948 73.6388 104.414 73.6388 105.05V106.362H78.7164V108.236H73.6388V109.548C73.6388 110.173 73.7865 110.639 74.0818 110.945C74.3885 111.241 74.8542 111.388 75.479 111.388H79.5002V113.263H75.479Z" fill="#DEFFEF"/>
<path d="M60.3496 101.335H64.7797C66.1201 101.335 67.1765 101.529 67.9489 101.915C68.7327 102.301 69.295 102.926 69.6358 103.789C69.9879 104.641 70.164 105.811 70.164 107.299C70.164 108.787 69.9879 109.963 69.6358 110.826C69.295 111.678 68.7327 112.297 67.9489 112.683C67.1765 113.07 66.1201 113.263 64.7797 113.263H60.3496V101.335ZM64.7797 111.388C65.5294 111.388 66.1201 111.258 66.5518 110.996C66.9834 110.735 67.2901 110.309 67.4719 109.719C67.665 109.128 67.7615 108.321 67.7615 107.299C67.7615 106.277 67.665 105.47 67.4719 104.88C67.2901 104.289 66.9834 103.863 66.5518 103.602C66.1201 103.34 65.5294 103.21 64.7797 103.21H62.7521V111.388H64.7797Z" fill="#DEFFEF"/>
<path d="M49.6856 113.467C48.1067 113.467 46.8969 113.104 46.0563 112.377C45.2271 111.638 44.8125 110.554 44.8125 109.122V105.476C44.8125 104.045 45.2271 102.966 46.0563 102.239C46.8969 101.5 48.1067 101.131 49.6856 101.131C51.2645 101.131 52.4686 101.5 53.2978 102.239C54.1384 102.966 54.5587 104.045 54.5587 105.476V109.122C54.5587 110.554 54.1384 111.638 53.2978 112.377C52.4686 113.104 51.2645 113.467 49.6856 113.467ZM49.6856 111.593C50.4808 111.593 51.0885 111.383 51.5088 110.963C51.9404 110.531 52.1562 109.917 52.1562 109.122V105.476C52.1562 104.681 51.9404 104.073 51.5088 103.653C51.0885 103.221 50.4808 103.005 49.6856 103.005C48.8905 103.005 48.2771 103.221 47.8454 103.653C47.4251 104.073 47.215 104.681 47.215 105.476V109.122C47.215 109.917 47.4251 110.531 47.8454 110.963C48.2771 111.383 48.8905 111.593 49.6856 111.593Z" fill="#DEFFEF"/>
<path d="M44.0517 113.263H41.5129L40.7291 110.622C40.57 110.076 40.411 109.656 40.252 109.361C40.093 109.054 39.8771 108.821 39.6045 108.662C39.3319 108.503 38.9684 108.424 38.514 108.424H36.7931V113.263H34.3906V101.335H39.2126C40.6666 101.335 41.74 101.625 42.433 102.204C43.1259 102.772 43.4723 103.664 43.4723 104.88C43.4723 105.663 43.2622 106.294 42.8419 106.771C42.433 107.248 41.865 107.555 41.138 107.691C41.7173 107.884 42.1547 108.219 42.45 108.696C42.7453 109.173 43.018 109.821 43.2679 110.639L44.0517 113.263ZM39.2808 106.549C39.8033 106.549 40.2293 106.413 40.5587 106.14C40.8995 105.856 41.0699 105.436 41.0699 104.88C41.0699 104.323 40.8995 103.908 40.5587 103.636C40.2293 103.352 39.8033 103.21 39.2808 103.21H36.7931V106.549H39.2808Z" fill="#DEFFEF"/>
<path d="M28.0885 113.467C26.4642 113.467 25.2203 113.104 24.357 112.377C23.5051 111.638 23.0791 110.554 23.0791 109.122V105.476C23.0791 104.045 23.5051 102.966 24.357 102.239C25.2203 101.5 26.4642 101.131 28.0885 101.131C29.2585 101.131 30.2127 101.319 30.951 101.693C31.7008 102.068 32.2914 102.625 32.7231 103.363L30.8999 104.607C30.5478 104.039 30.1729 103.63 29.7754 103.38C29.3778 103.13 28.8155 103.005 28.0885 103.005C27.1798 103.005 26.5153 103.216 26.095 103.636C25.686 104.045 25.4816 104.658 25.4816 105.476V109.122C25.4816 109.94 25.686 110.559 26.095 110.98C26.5153 111.388 27.1798 111.593 28.0885 111.593C28.8837 111.593 29.4857 111.462 29.8946 111.201C30.3149 110.928 30.5251 110.537 30.5251 110.025V109.497C30.5251 108.793 30.2013 108.441 29.5539 108.441H27.6114V106.566H30.2354C31.1442 106.566 31.8143 106.777 32.246 107.197C32.6777 107.617 32.8935 108.27 32.8935 109.156V110.196C32.8935 111.218 32.4618 112.019 31.5985 112.598C30.7352 113.178 29.5652 113.467 28.0885 113.467Z" fill="#DEFFEF"/>
<path d="M19.8719 110.485H15.2033L14.4025 113.263H12L14.9136 103.755C15.1181 103.073 15.3339 102.545 15.5611 102.17C15.7883 101.795 16.0552 101.529 16.3619 101.37C16.68 101.21 17.0719 101.131 17.5376 101.131C18.0034 101.131 18.3896 101.21 18.6963 101.37C19.003 101.529 19.2699 101.795 19.4971 102.17C19.7356 102.545 19.9571 103.073 20.1616 103.755L23.0752 113.263H20.6728L19.8719 110.485ZM19.3437 108.696L17.9125 103.789C17.833 103.494 17.708 103.346 17.5376 103.346C17.3672 103.346 17.2423 103.494 17.1628 103.789L15.7315 108.696H19.3437Z" fill="#DEFFEF"/>
<path d="M45.8739 14.0813L12.0059 91.0077H20.0037L48.7939 25.4179C49.283 24.3036 50.8663 24.3104 51.3459 25.4288L79.4658 91.0077H94.766C99.8081 91.0077 130.756 88.579 131.973 51.4538C132.947 21.7537 106.879 13.0565 93.7228 12.4204H63.4701L66.7736 20.4006H93.7228C103.633 19.9958 123.454 25.8132 123.454 52.3213C123.454 67.2407 112.495 78.6445 100.851 81.8132C95.1137 83.3745 88.6818 83.5552 85.3772 83.3745L54.8132 14.0796C54.3684 13.0712 53.3701 12.4204 52.2679 12.4204H48.4199C47.317 12.4204 46.3183 13.072 45.8739 14.0813Z" fill="white"/>
<path d="M34.7841 91.0079H26.2646L38.9568 62.4939L43.4774 72.0565L34.7841 91.0079Z" fill="#30E991"/>
<path d="M72.5125 33.3019L68.8613 25.4779C72.9762 25.7098 83.8819 24.949 94.5935 25.4779C108.677 26.1734 113.719 37.4747 113.719 37.4747C113.719 37.4747 107.807 33.3019 97.3753 33.3019H72.5125Z" fill="#30E991"/>
</svg>
